<?xml version="1.0" ?><svg enable-background="new 0 0 500 500" id="Layer_2" version="1.1" viewBox="0 0 500 500" xml:space="preserve" xmlns="http://www.w3.org/2000/svg" xmlns:xlink="http://www.w3.org/1999/xlink"><g><path d="M174.028,325.508l13.211,9.409c9.502,6.767,21.046,10.053,32.688,9.305l78.313-5.031l-92.571,30.992   l-38.761-8.854L174.028,325.508z" fill="#D8D8D8"/><polygon fill="#D8D8D8" points="110.105,310.866 78.757,294.167 96.485,419.569 85.473,484 115,484 119.739,352.678  "/><polygon fill="#D8D8D8" points="85.918,195.254 188.588,184.777 175.409,171.359 68.177,177.33  "/><path d="   M150.192,123.087l89.605,14.47l23.837-4.03c3.56-0.602,7.19-0.654,10.766-0.155l71.568,9.569l9.092-15.383L378.5,135" fill="none" stroke="#333333" stroke-linecap="round" stroke-linejoin="round" stroke-miterlimit="10" stroke-width="15"/><path d="   M195.446,173.161l43.003-7.294l23.041,5.964c4.952,1.282,10.122,1.472,15.155,0.559l68.649-11.918l17.805,13.87" fill="none" stroke="#333333" stroke-linecap="round" stroke-linejoin="round" stroke-miterlimit="10" stroke-width="15"/><path d="M170.15,363.049   l9.953,4.577c8.005,3.681,17.032,4.496,25.566,2.308l95.791-24.555" fill="none" stroke="#333333" stroke-linecap="round" stroke-miterlimit="10" stroke-width="15"/><polyline fill="none" points="   68.373,177.35 95.5,216.635 77.632,299.396 96.5,419.256 91.965,470.603 75.451,483.5 115.123,483.5 117.702,420.589    122.861,370.948  " stroke="#333333" stroke-linecap="round" stroke-linejoin="round" stroke-miterlimit="10" stroke-width="15"/><path d="   M195.446,173.161L170.5,215.415v19.401l39.269,13.4c5.466,1.865,11.254,2.601,17.013,2.164l104.137,3.088l43.742,26.732   c9.52,5.818,15.839,15.715,17.008,26.811c2.696,25.579,1.396,69.055-38.591,69.055l22.254,50.07L358.344,483.5h-40.19   l24.102-18.822l10.154-38.828l-57.258-59.547l-8.059-15.875" fill="none" stroke="#333333" stroke-linecap="round" stroke-linejoin="round" stroke-miterlimit="10" stroke-width="15"/><polyline fill="none" points="   110.166,307.042 133.706,419.256 134.252,470.603 120.224,483.5 157.39,483.5 154.868,420.589 170.143,326.64  " stroke="#333333" stroke-linecap="round" stroke-linejoin="round" stroke-miterlimit="10" stroke-width="15"/><path d="   M167.5,68.406c0-21.91-18.497-39.499-40.727-38.004c-19.288,1.297-34.721,17.254-35.433,36.572   c-0.277,7.517,1.636,14.564,5.136,20.572l-0.006,0.001l10.083,19.291c3.48,6.658,9.931,11.253,17.36,12.366l27.474,4.117   c8.484,1.271,16.112-5.299,16.112-13.878V68.406z" fill="none" stroke="#333333" stroke-linecap="round" stroke-linejoin="round" stroke-miterlimit="10" stroke-width="15"/><line fill="none" stroke="#333333" stroke-linecap="round" stroke-linejoin="round" stroke-miterlimit="10" stroke-width="15" x1="68.177" x2="111.961" y1="137.557" y2="113.81"/><polyline fill="none" points="   365.869,176.788 378.5,171.198 378.5,135  " stroke="#333333" stroke-linecap="round" stroke-linejoin="round" stroke-miterlimit="10" stroke-width="15"/><polyline fill="none" points="   316.222,20.119 203.473,147.89 316.222,283.277  " stroke="#D8D8D8" stroke-linecap="round" stroke-linejoin="round" stroke-miterlimit="10" stroke-width="10"/><path d="   M328.777,288.183c-8.825,0-21.097-14.325-3.907-29.223c12.039-10.434,41.63-56.847,41.63-90.935v-36.27   c0-34.088-29.591-80.501-41.63-90.935c-17.19-14.898-4.866-29.223,3.959-29.223" fill="none" stroke="#333333" stroke-linecap="round" stroke-linejoin="round" stroke-miterlimit="10" stroke-width="15"/><line fill="none" stroke="#F44E57" stroke-linecap="round" stroke-linejoin="round" stroke-miterlimit="10" stroke-width="10" x1="224" x2="452.928" y1="145.5" y2="136.797"/><path d="   M165.845,169.086l-97.667,8.244c-10.983,0-19.887-8.904-19.887-19.887v0c0-10.983,8.904-19.887,19.887-19.887l97.667,9.244   l18.62-13.77h19.009l-14.597,4.526l30.749,4.201v15.423l-13.813,1.589l-11.056,17.186L165.845,169.086z" fill="#FFFFFF" stroke="#333333" stroke-linecap="round" stroke-linejoin="round" stroke-miterlimit="10" stroke-width="15"/><polyline fill="none" points="   427.53,127.291 461.078,136.797 429.384,147.89  " stroke="#F44E57" stroke-linecap="round" stroke-linejoin="round" stroke-miterlimit="10" stroke-width="10"/><path d="   M351.688,266.356l10.568-21.065c6.087-12.132,18.498-19.791,32.071-19.791h0c14.862,0,28.185,9.162,33.504,23.039l30.507,79.588" fill="none" stroke="#333333" stroke-linecap="round" stroke-linejoin="round" stroke-miterlimit="10" stroke-width="15"/><path d="   M366.5,270.415l2.566-1.831c13.965-9.963,33.573-4.193,39.916,11.746l17.548,44.097" fill="none" stroke="#333333" stroke-linecap="round" stroke-linejoin="round" stroke-miterlimit="10" stroke-width="15"/></g></svg>